<svg xmlns="http://www.w3.org/2000/svg" version="1.1" xmlns:xlink="http://www.w3.org/1999/xlink" xmlns:svgjs="http://svgjs.dev/svgjs" width="2000" height="1252" viewBox="0 0 2000 1252"><g transform="matrix(1,0,0,1,-1.2121212121212466,-2.019354838709546)"><svg viewBox="0 0 396 248" data-background-color="#14293a" preserveAspectRatio="xMidYMid meet" height="1252" width="2000" xmlns="http://www.w3.org/2000/svg" xmlns:xlink="http://www.w3.org/1999/xlink"><g id="tight-bounds" transform="matrix(1,0,0,1,0.2400000000000091,0.4000000000000057)"><svg viewBox="0 0 395.52 247.2" height="247.2" width="395.52"><g><svg></svg></g><g><svg viewBox="0 0 395.52 247.2" height="247.2" width="395.52"><mask id="6fae58f0-d4af-4a86-bd13-fb3b6a3ce8d3"><rect width="395.52" height="247.2" fill="white"></rect><g transform="matrix(1,0,0,1,0,59.27392055267704)" id="clone"><svg viewBox="0 0 395.52 128.6521588946459" height="128.6521588946459" width="395.52"><g><svg viewBox="0 0 395.52 128.6521588946459" height="128.6521588946459" width="395.52"><g><svg viewBox="0 0 395.52 128.6521588946459" height="128.6521588946459" width="395.52"><g><svg viewBox="0 0 395.52 128.6521588946459" height="128.6521588946459" width="395.52"><g id="SvgjsG4142"><svg viewBox="0 0 395.52 128.6521588946459" height="128.6521588946459" width="395.52" id="SvgjsSvg4141"><g><svg viewBox="0 0 395.52 128.6521588946459" height="128.6521588946459" width="395.52"><g transform="matrix(1,0,0,1,0,0)"><svg width="395.52" viewBox="-2.95 -49.5 174.67999999999998 57.5" height="128.6521588946459" data-palette-color="#e9e4de"><path d="M7.8-24.05L7.8-24.05Q4.25-24.05 4.25-17.45L4.25-17.45 4.25-17.1Q4.25-16.45 3.95-16.45L3.95-16.45Q3.2-16.45 2.83-18.25 2.45-20.05 2.45-21.3L2.45-21.3Q2.45-23.35 3.38-24.95 4.3-26.55 6.25-26.55L6.25-26.55Q10.1-26.55 13.65-22.05L13.65-22.05Q16.65-25.55 20.08-29.13 23.5-32.7 25.4-34.5L25.4-34.5 27.3-36.35Q30.4-41 32.4-41L32.4-41Q32.9-41 32.9-40.55L32.9-40.55Q32.9-40.25 32.7-39.85L32.7-39.85Q28.3-31.2 24.65-20.35L24.65-20.35Q20.05-6.55 20.05 0.8L20.05 0.8Q20.05 3.1 20.6 4.15L20.6 4.15Q20.8 4.4 20.8 4.65L20.8 4.65Q20.8 5 20.2 5L20.2 5Q18.85 5 17.95 4.33 17.05 3.65 16.68 2.55 16.3 1.45 16.15 0.58 16-0.3 16-1.2L16-1.2Q16-2.7 16.55-5.65 17.1-8.6 17.1-9.95L17.1-9.95Q17.1-11.95 16.23-14.68 15.35-17.4 13.9-19.65L13.9-19.65Q12.3-17.45 10.98-15.25 9.65-13.05 9.1-12L9.1-12 8.6-10.9Q6.8-7.2 5.05-4.15 3.3-1.1 2.45 0.1L2.45 0.1 1.6 1.25Q1.05 1.9 0.6 1.9L0.6 1.9Q0.05 1.9 0.05 0.75L0.05 0.75Q0.2-6.3 12.85-21.1L12.85-21.1Q10.4-24.05 7.8-24.05ZM25.5-32.1L24.95-31.9Q19.45-27.1 14.65-20.65L14.65-20.65Q16.75-17.45 17.9-13.35L17.9-13.35Q18.05-12.9 18.15-12.9L18.15-12.9 18.4-13.35Q19.65-17.6 21.43-22.18 23.2-26.75 24.35-29.2L24.35-29.2 25.5-31.6Q25.65-31.9 25.65-32 25.65-32.1 25.5-32.1L25.5-32.1ZM50.8-7.55L50.8-7.55Q52.9-9.65 56.35-13.6L56.35-13.6Q56.5-13.75 56.6-13.75 56.7-13.75 56.7-13.55L56.7-13.55Q56.7-12.6 55.95-11.7L55.95-11.7Q52.25-7.6 49.4-4.85L49.4-4.85Q43.5 0.65 41.65 0.65L41.65 0.65Q40.85 0.65 40.85-0.3 40.85-1.25 41.87-3.45 42.9-5.65 43.92-7.45 44.95-9.25 46.52-11.85 48.1-14.45 48.2-14.65L48.2-14.65Q49.1-16.1 49.1-16.5L49.1-16.5Q49.1-16.75 48.85-16.75L48.85-16.75 48.15-16.5Q45.85-14.85 42.65-11.38 39.45-7.9 37.4-5.3L37.4-5.3 35.35-2.65Q33.05 0.65 30.85 0.65L30.85 0.65Q30.2 0.65 30.2 0.25L30.2 0.25Q30.2-0.2 31.15-2.13 32.1-4.05 33.05-5.75L33.05-5.75 34-7.45Q34.35-8.15 35.72-10.48 37.1-12.8 38.02-14.48 38.95-16.15 38.95-16.55L38.95-16.55Q38.95-16.8 38.75-16.8L38.75-16.8 38.05-16.5Q35.7-14.85 32.5-11.38 29.3-7.9 27.3-5.3L27.3-5.3 25.25-2.65Q22.9 0.6 20.75 0.6L20.75 0.6Q20.1 0.6 20.1 0.25L20.1 0.25Q20.1-0.2 21.05-2.13 22-4.05 22.95-5.75L22.95-5.75 23.9-7.45 28.75-16.05Q29.95-18.3 31.65-20.08 33.35-21.85 35.2-21.85L35.2-21.85Q35.6-21.85 35.6-21.5L35.6-21.5Q35.6-21.2 35.02-20.23 34.45-19.25 33.37-17.53 32.3-15.8 31.55-14.35L31.55-14.35Q31.1-13.5 30.47-12.43 29.85-11.35 29.45-10.63 29.05-9.9 28.9-9.6 28.75-9.3 28.75-9.15L28.75-9.15Q28.75-9.05 28.85-9.05L28.85-9.05Q29-9.05 29.35-9.4L29.35-9.4Q30.3-10.5 31.82-12.15 33.35-13.8 37-17.13 40.65-20.45 43-21.6L43-21.6Q43.5-21.85 44-21.85L44-21.85Q44.7-21.85 44.7-21.15L44.7-21.15Q44.7-19.85 41.75-14.4L41.75-14.4Q41.5-13.95 40.72-12.65 39.95-11.35 39.42-10.4 38.9-9.45 38.9-9.2L38.9-9.2Q38.9-9.05 39-9.05L39-9.05Q39.15-9.05 39.5-9.4L39.5-9.4Q40.45-10.5 41.97-12.15 43.5-13.8 47.12-17.13 50.75-20.45 53.1-21.6L53.1-21.6Q53.7-21.85 54.15-21.85L54.15-21.85Q54.9-21.85 54.9-21.15L54.9-21.15Q54.9-20.95 54.7-20.28 54.5-19.6 53.55-17.53 52.6-15.45 51.05-12.95L51.05-12.95Q47.25-7.1 47.25-5.6L47.25-5.6Q47.25-5.15 47.55-5.15L47.55-5.15Q48.4-5.15 50.8-7.55ZM58.49-4.85L58.49-4.85Q52.64 0.65 50.99 0.65L50.99 0.65Q50.14 0.65 50.14-0.5 50.14-1.65 51.05-3.85 51.95-6.05 52.84-7.7L52.84-7.7 53.74-9.3Q57.55-15.95 59.49-18.85L59.49-18.85Q60.34-20.1 61.67-20.98 62.99-21.85 64.14-21.85L64.14-21.85Q64.55-21.85 64.55-21.5L64.55-21.5Q64.55-21.25 64.19-20.55L64.19-20.55Q63.59-19.45 61.24-15.3 58.89-11.15 58.45-10.3L58.45-10.3Q56.39-6.7 56.39-5.5L56.39-5.5Q56.39-5.05 56.7-5.05L56.7-5.05Q57.2-5.05 59.89-7.55L59.89-7.55Q61.99-9.65 65.44-13.6L65.44-13.6Q65.59-13.75 65.69-13.75 65.8-13.75 65.8-13.55L65.8-13.55Q65.8-12.6 65.05-11.7L65.05-11.7Q61.34-7.6 58.49-4.85ZM65.14-24.7L65.14-24.7Q63.89-24.7 63.89-26.2L63.89-26.2Q63.89-27.6 64.94-29.03 66-30.45 67.25-30.45L67.25-30.45Q68.75-30.45 68.75-28.75L68.75-28.75Q68.75-27.35 67.59-26.03 66.44-24.7 65.14-24.7ZM73.24-10.35L73.24-10.35Q72.84-10.35 72.84-10.65L72.84-10.65Q72.84-10.8 72.99-11.05L72.99-11.05Q75.94-15.65 75.94-17.35L75.94-17.35Q75.94-17.8 75.59-17.8L75.59-17.8Q74.09-17.8 68.54-11L68.54-11Q66.89-8.9 65.47-6.65 64.04-4.4 63.49-3.2L63.49-3.2 62.89-2.05Q62.29-0.85 61.04 0.18 59.79 1.2 58.44 1.2L58.44 1.2Q57.74 1.2 57.74 0.85L57.74 0.85Q57.74 0.55 58.17-0.4 58.59-1.35 59.19-2.5 59.79-3.65 60.39-4.75 60.99-5.85 61.39-6.6L61.39-6.6 61.84-7.35 67.09-16.5Q70.14-22.25 73.49-22.25L73.49-22.25Q73.94-22.25 73.94-21.9L73.94-21.9Q73.94-21.45 71.77-18.18 69.59-14.9 69.24-14L69.24-14Q69.14-13.7 69.14-13.65L69.14-13.65Q69.14-13.55 69.24-13.55 69.34-13.55 69.59-13.8L69.59-13.8Q73.34-18.05 77.54-21.35L77.54-21.35Q77.79-21.6 78.64-22.08 79.49-22.55 80.14-22.55L80.14-22.55Q81.09-22.55 81.09-20.9L81.09-20.9Q81.09-19.1 79.89-16.6 78.69-14.1 76.64-12.2L76.64-12.2 76.44-12Q76.24-11.85 76.02-11.68 75.79-11.5 75.44-11.25 75.09-11 74.74-10.83 74.39-10.65 73.99-10.5 73.59-10.35 73.24-10.35ZM117.44-34.8L117.44-34.8Q115.19-34.8 111.29-31.3L111.29-31.3Q109.94-30.2 109.69-29.5L109.69-29.5Q108.09-25.3 106.54-16.23 104.99-7.15 104.99-2.8L104.99-2.8Q104.99-1.4 105.09-0.33 105.19 0.75 105.29 1.1L105.29 1.1 105.39 1.5Q105.49 2 105.49 2.05L105.49 2.05Q105.49 2.6 104.99 2.6L104.99 2.6Q104.44 2.6 103.64 1.98 102.84 1.35 102.19 0.25L102.19 0.25Q100.94-1.95 100.94-6.4L100.94-6.4Q100.94-13.25 104.19-23.15L104.19-23.15Q104.34-23.75 104.34-23.95L104.34-23.95Q104.34-24.3 104.14-24.3L104.14-24.3 103.49-23.9Q99.84-20.95 95.49-15.25L95.49-15.25Q93.94-13.25 92.49-10.95 91.04-8.65 90.39-7.35L90.39-7.35 89.74-6.05Q88.54-3.45 86.09-0.6 83.64 2.25 81.99 2.25L81.99 2.25Q81.44 2.25 81.44 1.7L81.44 1.7 81.59 1.05Q82.14-0.5 86.24-8.53 90.34-16.55 92.79-20.8L92.79-20.8Q95.14-24.85 97.39-28.45 99.64-32.05 100.74-33.6L100.74-33.6 101.84-35.2Q102.09-35.55 102.49-36.08 102.89-36.6 104.14-37.5 105.39-38.4 106.59-38.45L106.59-38.45Q107.14-38.45 107.14-37.9L107.14-37.9Q107.14-37.55 106.89-37.1L106.89-37.1Q100.49-26.85 97.74-21.15L97.74-21.15Q97.69-20.85 97.69-20.65L97.69-20.65Q97.69-20.35 97.84-20.35L97.84-20.35Q98.04-20.35 98.44-20.75L98.44-20.75 103.54-25.9Q116.59-38.65 120.39-38.7L120.39-38.7Q121.79-38.7 121.79-37.05L121.79-37.05Q121.79-35.75 121.01-34.38 120.24-33 119.54-33L119.54-33Q119.24-33 119.19-33.4L119.19-33.4Q119.14-33.55 119.06-33.77 118.99-34 118.54-34.4 118.09-34.8 117.44-34.8ZM125.39-7.55L125.39-7.55Q127.49-9.65 130.94-13.6L130.94-13.6Q131.09-13.75 131.19-13.75 131.29-13.75 131.29-13.55L131.29-13.55Q131.29-12.6 130.54-11.7L130.54-11.7Q126.84-7.6 123.99-4.85L123.99-4.85Q117.99 0.7 116.09 0.7L116.09 0.7Q115.34 0.7 115.34-0.25L115.34-0.25Q115.34-2.05 117.39-5.73 119.44-9.4 121.46-12.58 123.49-15.75 123.49-16.3L123.49-16.3Q123.49-16.6 123.19-16.6L123.19-16.6Q121.99-16.6 118.64-12.9 115.29-9.2 112.99-6.25L112.99-6.25Q110.44-3.05 108.56-1.15 106.69 0.75 106.09 1L106.09 1 105.44 1.3Q104.99 1.3 104.99 0.8L104.99 0.8Q104.99 0 105.89-2.05 106.79-4.1 107.69-5.75L107.69-5.75 108.59-7.4 116.39-21.4Q125.59-37.65 130.89-44.5L130.89-44.5Q132.39-46.5 132.99-46.5L132.99-46.5Q133.29-46.5 133.29-46.1L133.29-46.1Q133.29-45.05 131.69-41.8L131.69-41.8Q123.84-27.65 120.79-22.2L120.79-22.2Q118.94-18.9 117.44-16.32 115.94-13.75 115.31-12.7 114.69-11.65 114.24-10.88 113.79-10.1 113.54-9.55L113.54-9.55Q113.49-9.4 113.49-9.25L113.49-9.25Q113.49-9 113.59-9 113.69-9 113.99-9.3L113.99-9.3Q125.19-21.75 128.69-21.75L128.69-21.75Q129.39-21.75 129.39-21.05L129.39-21.05Q129.39-20.85 129.19-20.18 128.99-19.5 128.04-17.45 127.09-15.4 125.54-12.9L125.54-12.9Q124.59-11.5 123.14-8.9 121.69-6.3 121.69-5.5L121.69-5.5Q121.69-5.05 122.14-5.05L122.14-5.05Q122.29-5.05 122.56-5.18 122.84-5.3 123.19-5.6 123.54-5.9 123.81-6.15 124.09-6.4 124.61-6.88 125.14-7.35 125.39-7.55ZM140.73-3.15L140.73-3.15Q136.58 0.65 135.03 0.65L135.03 0.65Q134.33 0.65 134.33-0.15L134.33-0.15Q134.33-1.15 135.21-3.2 136.08-5.25 136.98-6.8L136.98-6.8 137.88-8.35Q138.08-8.7 138.08-8.8 138.08-8.9 137.98-8.9L137.98-8.9Q137.78-8.9 137.23-8.35L137.23-8.35Q135.73-6.7 133.81-4.83 131.88-2.95 130.68-1.9L130.68-1.9 129.53-0.9Q127.58 0.6 126.53 0.6L126.53 0.6Q125.43 0.6 125.43-1.1L125.43-1.1Q125.43-1.95 125.91-3.7 126.38-5.45 126.63-6.05L126.63-6.05Q127.78-8.85 129.51-11.5 131.23-14.15 133.58-16.57 135.93-19 139.06-20.5 142.18-22 145.53-22L145.53-22Q148.33-22 148.33-21.15L148.33-21.15Q148.33-20.65 147.08-20.65L147.08-20.65Q142.48-20.65 138.46-16.73 134.43-12.8 131.93-7.7L131.93-7.7Q131.23-6.3 131.23-5.35L131.23-5.35Q131.23-4.8 131.58-4.8L131.58-4.8Q132.18-4.8 133.13-5.65L133.13-5.65Q133.73-6.2 134.76-7.1 135.78-8 138.08-10.55 140.38-13.1 141.73-15.3L141.73-15.3Q141.93-15.7 142.36-16.25 142.78-16.8 143.98-17.73 145.18-18.65 146.38-18.65L146.38-18.65Q147.03-18.65 147.03-18.3L147.03-18.3Q147.03-18.2 146.88-17.95L146.88-17.95Q146.68-17.55 145.76-15.95 144.83-14.35 144.03-12.93 143.23-11.5 142.33-9.83 141.43-8.15 140.91-6.95 140.38-5.75 140.38-5.35L140.38-5.35Q140.38-5.05 140.63-5.05L140.63-5.05Q141.38-5.05 144.28-7.95L144.28-7.95Q146.48-10.25 149.43-13.6L149.43-13.6Q149.58-13.75 149.68-13.75 149.78-13.75 149.78-13.55L149.78-13.55Q149.78-12.6 149.03-11.7L149.03-11.7Q144.13-6.25 140.73-3.15ZM161.43-4.85L161.43-4.85Q155.58 0.65 153.73 0.65L153.73 0.65Q152.88 0.65 152.88-0.25L152.88-0.25Q152.88-0.8 153.13-1.63 153.38-2.45 153.75-3.28 154.13-4.1 154.48-4.8 154.83-5.5 155.18-6.1 155.53-6.7 155.53-6.75L155.53-6.75Q156.28-8.1 157.78-10.53 159.28-12.95 160.18-14.53 161.08-16.1 161.08-16.45L161.08-16.45Q161.08-16.7 160.83-16.7L160.83-16.7 160.13-16.45Q157.83-14.8 154.63-11.33 151.43-7.85 149.38-5.2L149.38-5.2 147.33-2.6Q146.68-1.65 146.18-1.05 145.68-0.45 144.75 0.13 143.83 0.7 142.88 0.7L142.88 0.7Q142.18 0.7 142.18 0.3 142.18-0.1 143.13-2.02 144.08-3.95 145.03-5.7L145.03-5.7 145.98-7.4 150.88-16Q151.63-17.25 152.11-17.93 152.58-18.6 153.43-19.63 154.28-20.65 155.25-21.15 156.23-21.65 157.33-21.75L157.33-21.75Q157.73-21.75 157.73-21.4L157.73-21.4Q157.73-21.1 157.58-20.9L157.58-20.9Q156.43-19.1 154.06-14.95 151.68-10.8 151.03-9.55L151.03-9.55Q150.88-9.25 150.88-9.1L150.88-9.1Q150.88-9 150.98-9 151.08-9 151.48-9.3L151.48-9.3Q152.43-10.4 153.96-12.05 155.48-13.7 159.13-17.03 162.78-20.35 165.13-21.5L165.13-21.5Q165.68-21.75 166.18-21.75L166.18-21.75Q166.88-21.75 166.88-20.95L166.88-20.95Q166.48-18.6 163.03-12.9L163.03-12.9Q159.23-6.65 159.23-5.5L159.23-5.5Q159.23-5.1 159.58-5.1L159.58-5.1Q159.83-5.1 160.16-5.28 160.48-5.45 160.88-5.78 161.28-6.1 161.56-6.35 161.83-6.6 162.28-7.03 162.73-7.45 162.83-7.55L162.83-7.55Q164.93-9.65 168.38-13.6L168.38-13.6Q168.53-13.75 168.63-13.75 168.73-13.75 168.73-13.55L168.73-13.55Q168.73-12.6 167.98-11.7L167.98-11.7Q164.28-7.6 161.43-4.85Z" opacity="1" transform="matrix(1,0,0,1,0,0)" fill="black" class="wordmark-text-0" id="SvgjsPath4140" stroke-width="5" stroke="black" stroke-linejoin="round"></path></svg></g></svg></g></svg></g></svg></g></svg></g></svg></g></svg></g></mask><g mask="url(#6fae58f0-d4af-4a86-bd13-fb3b6a3ce8d3)"><g><path d="M42.642 91.088v0c-12.718 0-19.077 11.823-19.077 35.468v0 1.881c0 2.329-0.537 3.493-1.613 3.493v0c-2.687 0-4.693-3.224-6.018-9.673-1.361-6.449-2.042-11.912-2.042-16.391v0c0-7.344 1.666-13.883 4.997-19.615 3.296-5.732 8.437-8.598 15.423-8.598v0c13.793 0 27.049 8.061 39.767 24.183v0c10.748-12.539 22.266-25.222 34.555-38.048 12.253-12.79 21.782-22.409 28.589-28.858v0l10.21-9.941c11.106-16.659 20.242-24.989 27.407-24.989v0c1.791 0 2.687 0.806 2.687 2.418v0c0 1.075-0.358 2.329-1.075 3.762v0c-15.763 30.99-30.183 65.92-43.26 104.791v0c-16.48 49.44-24.72 87.326-24.72 113.659v0c0 8.24 0.985 14.241 2.956 18.002v0c0.717 0.896 1.075 1.791 1.075 2.687v0c0 1.254-1.075 1.881-3.224 1.881v0c-4.837 0-8.867-1.2-12.092-3.601-3.224-2.436-5.499-5.625-6.825-9.565-1.361-3.941-2.311-7.47-2.848-10.587-0.537-3.153-0.806-6.341-0.806-9.565v0c0-5.374 0.985-13.345 2.956-23.914 1.97-10.569 2.956-18.271 2.955-23.108v0c0-7.165-1.558-15.638-4.675-25.419-3.153-9.745-7.326-18.647-12.521-26.708v0c-5.732 7.882-10.963 15.763-15.692 23.645-4.765 7.882-8.133 13.703-10.103 17.465v0l-2.687 5.912c-6.449 13.256-12.808 25.347-19.077 36.274-6.27 10.927-10.927 18.54-13.972 22.839v0l-4.568 6.18c-1.97 2.329-3.762 3.493-5.374 3.493v0c-1.97 0-2.956-2.06-2.956-6.18v0c0.537-25.257 23.466-64.397 68.786-117.42v0c-8.777-10.569-17.823-15.853-27.138-15.853zM137.76 47.828l-2.955 1.075c-19.704 17.197-38.155 37.349-55.352 60.456v0c7.523 11.464 13.345 24.541 17.466 39.23v0c0.537 1.612 0.985 2.418 1.343 2.418v0l1.343-2.418c4.478-15.226 9.906-31.043 16.283-47.452 6.341-16.373 11.572-28.947 15.692-37.725v0l6.18-12.897c0.537-1.075 0.806-1.791 0.806-2.15 0-0.358-0.269-0.537-0.806-0.537zM371.149 33.318v0c-8.061 0-19.077 6.27-33.049 18.809v0c-4.837 3.941-7.703 7.165-8.599 9.673v0c-5.732 15.047-11.375 38.818-16.927 71.312-5.553 32.53-8.33 56.587-8.33 72.171v0c0 5.016 0.179 9.44 0.537 13.274 0.358 3.869 0.717 6.431 1.075 7.685v0l0.538 2.149c0.358 1.791 0.537 2.777 0.537 2.956v0c0 1.97-0.896 2.956-2.687 2.956v0c-1.97 0-4.389-1.111-7.255-3.332-2.866-2.257-5.463-5.356-7.792-9.297v0c-4.478-7.882-6.717-19.794-6.717-35.737v0c0-24.541 5.822-54.545 17.465-90.013v0c0.537-2.15 0.806-3.583 0.806-4.299v0c0-1.254-0.358-1.881-1.075-1.881v0l-3.493 2.15c-13.077 10.569-27.407 26.063-42.991 46.484v0c-5.553 7.165-10.927 14.868-16.122 23.108-5.195 8.24-8.957 14.689-11.285 19.346v0l-3.493 6.986c-4.299 9.315-10.837 19.077-19.615 29.288-8.777 10.21-16.122 15.316-22.033 15.316v0c-1.97 0-2.956-0.985-2.956-2.956v0l0.807-3.493c1.97-5.553 10.3-22.714 24.988-51.482 14.689-28.733 26.422-50.712 35.199-65.938v0c8.419-14.51 16.659-28.213 24.72-41.11 8.061-12.897 14.062-22.123 18.003-27.676v0l5.911-8.598c0.896-1.254 2.06-2.83 3.493-4.729 1.433-1.863 4.389-4.407 8.867-7.631 4.478-3.224 8.867-4.926 13.166-5.105v0c1.97 0 2.956 0.985 2.956 2.955v0c0 1.254-0.448 2.687-1.343 4.299v0c-22.929 36.722-39.319 65.293-49.172 85.714v0c-0.179 1.075-0.269 1.97-0.268 2.687v0c0 1.075 0.269 1.612 0.806 1.612v0c0.717 0 1.791-0.717 3.224-2.149v0l27.407-27.676c46.753-45.678 76.937-68.607 90.55-68.786v0c5.016 0 7.523 2.956 7.524 8.867v0c0 4.657-1.397 9.44-4.192 14.348-2.759 4.944-5.392 7.416-7.899 7.416v0c-1.075 0-1.702-0.717-1.881-2.149v0c-0.179-0.537-0.412-1.2-0.699-1.989-0.251-0.824-1.182-1.953-2.794-3.385-1.612-1.433-3.583-2.15-5.912-2.15z" fill="#ffffff" fill-rule="nonzero" stroke="none" stroke-width="1" stroke-linecap="butt" stroke-linejoin="miter" stroke-miterlimit="10" stroke-dasharray="" stroke-dashoffset="0" font-family="none" font-weight="none" font-size="none" text-anchor="none" style="mix-blend-mode: normal" data-fill-palette-color="tertiary"></path></g></g><g transform="matrix(1,0,0,1,0,59.27392055267704)"><svg viewBox="0 0 395.52 128.6521588946459" height="128.6521588946459" width="395.52"><g><svg viewBox="0 0 395.52 128.6521588946459" height="128.6521588946459" width="395.52"><g><svg viewBox="0 0 395.52 128.6521588946459" height="128.6521588946459" width="395.52"><g><svg viewBox="0 0 395.52 128.6521588946459" height="128.6521588946459" width="395.52"><g id="textblocktransform"><svg viewBox="0 0 395.52 128.6521588946459" height="128.6521588946459" width="395.52" id="textblock"><g><svg viewBox="0 0 395.52 128.6521588946459" height="128.6521588946459" width="395.52"><g transform="matrix(1,0,0,1,0,0)"><svg width="395.52" viewBox="-2.95 -49.5 174.67999999999998 57.5" height="128.6521588946459" data-palette-color="#e9e4de"><path d="M7.8-24.05L7.8-24.05Q4.25-24.05 4.25-17.45L4.25-17.45 4.25-17.1Q4.25-16.45 3.95-16.45L3.95-16.45Q3.2-16.45 2.83-18.25 2.45-20.05 2.45-21.3L2.45-21.3Q2.45-23.35 3.38-24.95 4.3-26.55 6.25-26.55L6.25-26.55Q10.1-26.55 13.65-22.05L13.65-22.05Q16.65-25.55 20.08-29.13 23.5-32.7 25.4-34.5L25.4-34.5 27.3-36.35Q30.4-41 32.4-41L32.4-41Q32.9-41 32.9-40.55L32.9-40.55Q32.9-40.25 32.7-39.85L32.7-39.85Q28.3-31.2 24.65-20.35L24.65-20.35Q20.05-6.55 20.05 0.8L20.05 0.8Q20.05 3.1 20.6 4.15L20.6 4.15Q20.8 4.4 20.8 4.65L20.8 4.65Q20.8 5 20.2 5L20.2 5Q18.85 5 17.95 4.33 17.05 3.65 16.68 2.55 16.3 1.45 16.15 0.58 16-0.3 16-1.2L16-1.2Q16-2.7 16.55-5.65 17.1-8.6 17.1-9.95L17.1-9.95Q17.1-11.95 16.23-14.68 15.35-17.4 13.9-19.65L13.9-19.65Q12.3-17.45 10.98-15.25 9.65-13.05 9.1-12L9.1-12 8.6-10.9Q6.8-7.2 5.05-4.15 3.3-1.1 2.45 0.1L2.45 0.1 1.6 1.25Q1.05 1.9 0.6 1.9L0.6 1.9Q0.05 1.9 0.05 0.75L0.05 0.75Q0.2-6.3 12.85-21.1L12.85-21.1Q10.4-24.05 7.8-24.05ZM25.5-32.1L24.95-31.9Q19.45-27.1 14.65-20.65L14.65-20.65Q16.75-17.45 17.9-13.35L17.9-13.35Q18.05-12.9 18.15-12.9L18.15-12.9 18.4-13.35Q19.65-17.6 21.43-22.18 23.2-26.75 24.35-29.2L24.35-29.2 25.5-31.6Q25.65-31.9 25.65-32 25.65-32.1 25.5-32.1L25.5-32.1ZM50.8-7.55L50.8-7.55Q52.9-9.65 56.35-13.6L56.35-13.6Q56.5-13.75 56.6-13.75 56.7-13.75 56.7-13.55L56.7-13.55Q56.7-12.6 55.95-11.7L55.95-11.7Q52.25-7.6 49.4-4.85L49.4-4.85Q43.5 0.65 41.65 0.65L41.65 0.65Q40.85 0.65 40.85-0.3 40.85-1.25 41.87-3.45 42.9-5.65 43.92-7.45 44.95-9.25 46.52-11.85 48.1-14.45 48.2-14.65L48.2-14.65Q49.1-16.1 49.1-16.5L49.1-16.5Q49.1-16.75 48.85-16.75L48.85-16.75 48.15-16.5Q45.85-14.85 42.65-11.38 39.45-7.9 37.4-5.3L37.4-5.3 35.35-2.65Q33.05 0.65 30.85 0.65L30.85 0.65Q30.2 0.65 30.2 0.25L30.2 0.25Q30.2-0.2 31.15-2.13 32.1-4.05 33.05-5.75L33.05-5.75 34-7.45Q34.35-8.15 35.72-10.48 37.1-12.8 38.02-14.48 38.95-16.15 38.95-16.55L38.95-16.55Q38.95-16.8 38.75-16.8L38.75-16.8 38.05-16.5Q35.7-14.85 32.5-11.38 29.3-7.9 27.3-5.3L27.3-5.3 25.25-2.65Q22.9 0.6 20.75 0.6L20.75 0.6Q20.1 0.6 20.1 0.25L20.1 0.25Q20.1-0.2 21.05-2.13 22-4.05 22.95-5.75L22.95-5.75 23.9-7.45 28.75-16.05Q29.95-18.3 31.65-20.08 33.35-21.85 35.2-21.85L35.2-21.85Q35.6-21.85 35.6-21.5L35.6-21.5Q35.6-21.2 35.02-20.23 34.45-19.25 33.37-17.53 32.3-15.8 31.55-14.35L31.55-14.35Q31.1-13.5 30.47-12.43 29.85-11.35 29.45-10.63 29.05-9.9 28.9-9.6 28.75-9.3 28.75-9.15L28.75-9.15Q28.75-9.05 28.85-9.05L28.85-9.05Q29-9.05 29.35-9.4L29.35-9.4Q30.3-10.5 31.82-12.15 33.35-13.8 37-17.13 40.65-20.45 43-21.6L43-21.6Q43.5-21.85 44-21.85L44-21.85Q44.7-21.85 44.7-21.15L44.7-21.15Q44.7-19.85 41.75-14.4L41.75-14.4Q41.5-13.95 40.72-12.65 39.95-11.35 39.42-10.4 38.9-9.45 38.9-9.2L38.9-9.2Q38.9-9.05 39-9.05L39-9.05Q39.15-9.05 39.5-9.4L39.5-9.4Q40.45-10.5 41.97-12.15 43.5-13.8 47.12-17.13 50.75-20.45 53.1-21.6L53.1-21.6Q53.7-21.85 54.15-21.85L54.15-21.85Q54.9-21.85 54.9-21.15L54.9-21.15Q54.9-20.95 54.7-20.28 54.5-19.6 53.55-17.53 52.6-15.45 51.05-12.95L51.05-12.95Q47.25-7.1 47.25-5.6L47.25-5.6Q47.25-5.15 47.55-5.15L47.55-5.15Q48.4-5.15 50.8-7.55ZM58.49-4.85L58.49-4.85Q52.64 0.65 50.99 0.65L50.99 0.65Q50.14 0.65 50.14-0.5 50.14-1.65 51.05-3.85 51.95-6.05 52.84-7.7L52.84-7.7 53.74-9.3Q57.55-15.95 59.49-18.85L59.49-18.85Q60.34-20.1 61.67-20.98 62.99-21.85 64.14-21.85L64.14-21.85Q64.55-21.85 64.55-21.5L64.55-21.5Q64.55-21.25 64.19-20.55L64.19-20.55Q63.59-19.45 61.24-15.3 58.89-11.15 58.45-10.3L58.45-10.3Q56.39-6.7 56.39-5.5L56.39-5.5Q56.39-5.05 56.7-5.05L56.7-5.05Q57.2-5.05 59.89-7.55L59.89-7.55Q61.99-9.65 65.44-13.6L65.44-13.6Q65.59-13.75 65.69-13.75 65.8-13.75 65.8-13.55L65.8-13.55Q65.8-12.6 65.05-11.7L65.05-11.7Q61.34-7.6 58.49-4.85ZM65.14-24.7L65.14-24.7Q63.89-24.7 63.89-26.2L63.89-26.2Q63.89-27.6 64.94-29.03 66-30.45 67.25-30.45L67.25-30.45Q68.75-30.45 68.75-28.75L68.75-28.75Q68.75-27.35 67.59-26.03 66.44-24.7 65.14-24.7ZM73.24-10.35L73.24-10.35Q72.84-10.35 72.84-10.65L72.84-10.65Q72.84-10.8 72.99-11.05L72.99-11.05Q75.94-15.65 75.94-17.35L75.94-17.35Q75.94-17.8 75.59-17.8L75.59-17.8Q74.09-17.8 68.54-11L68.54-11Q66.89-8.9 65.47-6.65 64.04-4.4 63.49-3.2L63.49-3.2 62.89-2.05Q62.29-0.85 61.04 0.18 59.79 1.2 58.44 1.2L58.44 1.2Q57.74 1.2 57.74 0.85L57.74 0.85Q57.74 0.55 58.17-0.4 58.59-1.35 59.19-2.5 59.79-3.65 60.39-4.75 60.99-5.85 61.39-6.6L61.39-6.6 61.84-7.35 67.09-16.5Q70.14-22.25 73.49-22.25L73.49-22.25Q73.94-22.25 73.94-21.9L73.94-21.9Q73.94-21.45 71.77-18.18 69.59-14.9 69.24-14L69.24-14Q69.14-13.7 69.14-13.65L69.14-13.65Q69.14-13.55 69.24-13.55 69.34-13.55 69.59-13.8L69.59-13.8Q73.34-18.05 77.54-21.35L77.54-21.35Q77.79-21.6 78.64-22.08 79.49-22.55 80.14-22.55L80.14-22.55Q81.09-22.55 81.09-20.9L81.09-20.9Q81.09-19.1 79.89-16.6 78.69-14.1 76.64-12.2L76.64-12.2 76.44-12Q76.24-11.85 76.02-11.68 75.79-11.5 75.44-11.25 75.09-11 74.74-10.83 74.39-10.65 73.99-10.5 73.59-10.35 73.24-10.35ZM117.44-34.8L117.44-34.8Q115.19-34.8 111.29-31.3L111.29-31.3Q109.94-30.2 109.69-29.5L109.69-29.5Q108.09-25.3 106.54-16.23 104.99-7.15 104.99-2.8L104.99-2.8Q104.99-1.4 105.09-0.33 105.19 0.75 105.29 1.1L105.29 1.1 105.39 1.5Q105.49 2 105.49 2.05L105.49 2.05Q105.49 2.6 104.99 2.6L104.99 2.6Q104.44 2.6 103.64 1.98 102.84 1.35 102.19 0.25L102.19 0.25Q100.94-1.95 100.94-6.4L100.94-6.4Q100.94-13.25 104.19-23.15L104.19-23.15Q104.34-23.75 104.34-23.95L104.34-23.95Q104.34-24.3 104.14-24.3L104.14-24.3 103.49-23.9Q99.84-20.95 95.49-15.25L95.49-15.25Q93.94-13.25 92.49-10.95 91.04-8.65 90.39-7.35L90.39-7.35 89.74-6.05Q88.54-3.45 86.09-0.6 83.64 2.25 81.99 2.25L81.99 2.25Q81.44 2.25 81.44 1.7L81.44 1.7 81.59 1.05Q82.14-0.5 86.24-8.53 90.34-16.55 92.79-20.8L92.79-20.8Q95.14-24.85 97.39-28.45 99.64-32.05 100.74-33.6L100.74-33.6 101.84-35.2Q102.09-35.55 102.49-36.08 102.89-36.6 104.14-37.5 105.39-38.4 106.59-38.45L106.59-38.45Q107.14-38.45 107.14-37.9L107.14-37.9Q107.14-37.55 106.89-37.1L106.89-37.1Q100.49-26.85 97.74-21.15L97.74-21.15Q97.69-20.85 97.69-20.65L97.69-20.65Q97.69-20.35 97.84-20.35L97.84-20.35Q98.04-20.35 98.44-20.75L98.44-20.75 103.54-25.9Q116.59-38.65 120.39-38.7L120.39-38.7Q121.79-38.7 121.79-37.05L121.79-37.05Q121.79-35.75 121.01-34.38 120.24-33 119.54-33L119.54-33Q119.24-33 119.19-33.4L119.19-33.4Q119.14-33.55 119.06-33.77 118.99-34 118.54-34.4 118.09-34.8 117.44-34.8ZM125.39-7.55L125.39-7.55Q127.49-9.65 130.94-13.6L130.94-13.6Q131.09-13.75 131.19-13.75 131.29-13.75 131.29-13.55L131.29-13.55Q131.29-12.6 130.54-11.7L130.54-11.7Q126.84-7.6 123.99-4.85L123.99-4.85Q117.99 0.7 116.09 0.7L116.09 0.7Q115.34 0.7 115.34-0.25L115.34-0.25Q115.34-2.05 117.39-5.73 119.44-9.4 121.46-12.58 123.49-15.75 123.49-16.3L123.49-16.3Q123.49-16.6 123.19-16.6L123.19-16.6Q121.99-16.6 118.64-12.9 115.29-9.2 112.99-6.25L112.99-6.25Q110.44-3.05 108.56-1.15 106.69 0.75 106.09 1L106.09 1 105.44 1.3Q104.99 1.3 104.99 0.8L104.99 0.8Q104.99 0 105.89-2.05 106.79-4.1 107.69-5.75L107.69-5.75 108.59-7.4 116.39-21.4Q125.59-37.65 130.89-44.5L130.89-44.5Q132.39-46.5 132.99-46.5L132.99-46.5Q133.29-46.5 133.29-46.1L133.29-46.1Q133.29-45.05 131.69-41.8L131.69-41.8Q123.84-27.65 120.79-22.2L120.79-22.2Q118.94-18.9 117.44-16.32 115.94-13.75 115.31-12.7 114.69-11.65 114.24-10.88 113.79-10.1 113.54-9.55L113.54-9.55Q113.49-9.4 113.49-9.25L113.49-9.25Q113.49-9 113.59-9 113.69-9 113.99-9.3L113.99-9.3Q125.19-21.75 128.69-21.75L128.69-21.75Q129.39-21.75 129.39-21.05L129.39-21.05Q129.39-20.85 129.19-20.18 128.99-19.5 128.04-17.45 127.09-15.4 125.54-12.9L125.54-12.9Q124.59-11.5 123.14-8.9 121.69-6.3 121.69-5.5L121.69-5.5Q121.69-5.05 122.14-5.05L122.14-5.05Q122.29-5.05 122.56-5.18 122.84-5.3 123.19-5.6 123.54-5.9 123.81-6.15 124.09-6.4 124.61-6.88 125.14-7.35 125.39-7.55ZM140.73-3.15L140.73-3.15Q136.58 0.65 135.03 0.65L135.03 0.65Q134.33 0.65 134.33-0.15L134.33-0.15Q134.33-1.15 135.21-3.2 136.08-5.25 136.98-6.8L136.98-6.8 137.88-8.35Q138.08-8.7 138.08-8.8 138.08-8.9 137.98-8.9L137.98-8.9Q137.78-8.9 137.23-8.35L137.23-8.35Q135.73-6.7 133.81-4.83 131.88-2.95 130.68-1.9L130.68-1.9 129.53-0.9Q127.58 0.6 126.53 0.6L126.53 0.6Q125.43 0.6 125.43-1.1L125.43-1.1Q125.43-1.95 125.91-3.7 126.38-5.45 126.63-6.05L126.63-6.05Q127.78-8.85 129.51-11.5 131.23-14.15 133.58-16.57 135.93-19 139.06-20.5 142.18-22 145.53-22L145.53-22Q148.33-22 148.33-21.15L148.33-21.15Q148.33-20.65 147.08-20.65L147.08-20.65Q142.48-20.65 138.46-16.73 134.43-12.8 131.93-7.7L131.93-7.7Q131.23-6.3 131.23-5.35L131.23-5.35Q131.23-4.8 131.58-4.8L131.58-4.8Q132.18-4.8 133.13-5.65L133.13-5.65Q133.73-6.2 134.76-7.1 135.78-8 138.08-10.55 140.38-13.1 141.73-15.3L141.73-15.3Q141.93-15.7 142.36-16.25 142.78-16.8 143.98-17.73 145.18-18.65 146.38-18.65L146.38-18.65Q147.03-18.65 147.03-18.3L147.03-18.3Q147.03-18.2 146.88-17.95L146.88-17.95Q146.68-17.55 145.76-15.95 144.83-14.35 144.03-12.93 143.23-11.5 142.33-9.83 141.43-8.15 140.91-6.95 140.38-5.75 140.38-5.35L140.38-5.35Q140.38-5.05 140.63-5.05L140.63-5.05Q141.38-5.05 144.28-7.95L144.28-7.95Q146.48-10.25 149.43-13.6L149.43-13.6Q149.58-13.75 149.68-13.75 149.78-13.75 149.78-13.55L149.78-13.55Q149.78-12.6 149.03-11.7L149.03-11.7Q144.13-6.25 140.73-3.15ZM161.43-4.85L161.43-4.85Q155.58 0.65 153.73 0.65L153.73 0.65Q152.88 0.65 152.88-0.25L152.88-0.25Q152.88-0.8 153.13-1.63 153.38-2.45 153.75-3.28 154.13-4.1 154.48-4.8 154.83-5.5 155.18-6.1 155.53-6.7 155.53-6.75L155.53-6.75Q156.28-8.1 157.78-10.53 159.28-12.95 160.18-14.53 161.08-16.1 161.08-16.45L161.08-16.45Q161.08-16.7 160.83-16.7L160.83-16.7 160.13-16.45Q157.83-14.8 154.63-11.33 151.43-7.85 149.38-5.2L149.38-5.2 147.33-2.6Q146.68-1.65 146.18-1.05 145.68-0.45 144.75 0.13 143.83 0.7 142.88 0.7L142.88 0.7Q142.18 0.7 142.18 0.3 142.18-0.1 143.13-2.02 144.08-3.95 145.03-5.7L145.03-5.7 145.98-7.4 150.88-16Q151.63-17.25 152.11-17.93 152.58-18.6 153.43-19.63 154.28-20.65 155.25-21.15 156.23-21.65 157.33-21.75L157.33-21.75Q157.73-21.75 157.73-21.4L157.73-21.4Q157.73-21.1 157.58-20.9L157.58-20.9Q156.43-19.1 154.06-14.95 151.68-10.8 151.03-9.55L151.03-9.55Q150.88-9.25 150.88-9.1L150.88-9.1Q150.88-9 150.98-9 151.08-9 151.48-9.3L151.48-9.3Q152.43-10.4 153.96-12.05 155.48-13.7 159.13-17.03 162.78-20.35 165.13-21.5L165.13-21.5Q165.68-21.75 166.18-21.75L166.18-21.75Q166.88-21.75 166.88-20.95L166.88-20.95Q166.48-18.6 163.03-12.9L163.03-12.9Q159.23-6.65 159.23-5.5L159.23-5.5Q159.23-5.1 159.58-5.1L159.58-5.1Q159.83-5.1 160.16-5.28 160.48-5.45 160.88-5.78 161.28-6.1 161.56-6.35 161.83-6.6 162.28-7.03 162.73-7.45 162.83-7.55L162.83-7.55Q164.93-9.65 168.38-13.6L168.38-13.6Q168.53-13.75 168.63-13.75 168.73-13.75 168.73-13.55L168.73-13.55Q168.73-12.6 167.98-11.7L167.98-11.7Q164.28-7.6 161.43-4.85Z" opacity="1" transform="matrix(1,0,0,1,0,0)" fill="#ffffff" class="wordmark-text-0" data-fill-palette-color="primary" id="text-0"></path></svg></g></svg></g></svg></g></svg></g></svg></g></svg></g></svg></g></svg></g><defs></defs></svg><rect width="395.52" height="247.2" fill="none" stroke="none" visibility="hidden"></rect></g></svg></g></svg>